# xmcd
#
# Track frame offsets:
#	150
#	17735
#	36306
#	67198
#	82116
#	107591
#	125418
#	154102
#	178536
#	196848
#	217906
#	245447
#	262867
#	283117
#
# Disc length: 4183
#
# Revision: 1
# Processed by: cddbd v1.5.1PL0 Copyright (c) Steve Scherf et al.
# Submitted via: CDex 1.50Beta1
# Normalized: r0:DSETVAR1,TDELIM( - )
#
DISCID=c210550e
DTITLE=Various Artist - Relaxin' with blue note
DYEAR=2001
DGENRE=Jazz
TTITLE0=Joe Lovano Nonet - If you could see me now
TTITLE1=Cannonball Adderley - Dancing in the dark
TTITLE2=Curtis Fuller - A lovely way to spend an evening
TTITLE3=Chet Baker - Moon love
TTITLE4=Bill Evans and Jim Hall - Stairway to the stars
TTITLE5=George Shearing - Like someone in love
TTITLE6=Lee Morgan - Ceora
TTITLE7=Gonzalo Rubalcaba - Yolanda anas
TTITLE8=Miles Davis - It never entered my mind
TTITLE9=Eliane Elias - That's all it was
TTITLE10=Dexter Gordon - Don't explain
TTITLE11=Gerry Mulligan - Darn that dream
TTITLE12=Art Pepper - Bewitched
TTITLE13=Grant Green - I'll never fall in love again
EXTD=YEAR: 2001
EXTT0=
EXTT1=
EXTT2=
EXTT3=
EXTT4=
EXTT5=
EXTT6=
EXTT7=
EXTT8=
EXTT9=
EXTT10=
EXTT11=
EXTT12=
EXTT13=
PLAYORDER=
